# xmcd
# 
# Track frame offsets:
#     187
#     18045
#     38597
#     55815
#     75982
#     97700
#     116227
#     134352
#     155027
#     172982
#     192777
#     208657
#     226717
#     244990
#     261662
# 
# Disc length: 3741
# 
# Revision: 4
# Processed by: cddbd v1.5.2PL0 Copyright (c) Steve Scherf et al.
# Submitted via: fre:ac v1.0.31
# 
DISCID=bb0e9b0f
DTITLE=SOUTHERN ALL STARS - Suika  VOL. 1 1978~1980
DYEAR=1989
DGENRE=Rock
TTITLE0=勝手にシンドバッド
TTITLE1=別れ話は最後に
TTITLE2=当って砕けろ
TTITLE3=恋はお熱く
TTITLE4=瞳の中にレインボウ
TTITLE5=女呼んでブギ
TTITLE6=お願いD.J.
TTITLE7=思い過しも恋のうち
TTITLE8=LET IT BOOGIE
TTITLE9=いとしのエリー
TTITLE10=タバコロードにセクシーばあちゃん
TTITLE11=私はピアノ
TTITLE12=涙のアベニュー
TTITLE13=TO YOU
TTITLE14=恋するマンスリーデイ
EXTD=YEAR: 1989
EXTT0=
EXTT1=
EXTT2=
EXTT3=
EXTT4=
EXTT5=
EXTT6=
EXTT7=
EXTT8=
EXTT9=
EXTT10=
EXTT11=
EXTT12=
EXTT13=
EXTT14=
PLAYORDER=
